<svg width="20" height="20" viewBox="0 0 20 20" fill="none" xmlns="http://www.w3.org/2000/svg">
<path d="M10 12C12.7614 12 15 9.76142 15 7C15 4.23858 12.7614 2 10 2C7.23858 2 5 4.23858 5 7C5 9.76142 7.23858 12 10 12ZM10 12C5.58172 12 2 14.6863 2 18M10 12C14.4183 12 18 14.6863 18 18" stroke="black" stroke-width="1.5" stroke-linecap="round"/>
<g clip-path="url(#clip0_99_1619)">
<mask id="mask0_99_1619" style="mask-type:luminance" maskUnits="userSpaceOnUse" x="8" y="12" width="4" height="8">
<path d="M12 12H8V20H12V12Z" fill="white"/>
</mask>
<g mask="url(#mask0_99_1619)">
<path d="M9.79331 13.9135C9.86998 13.9459 9.96665 13.9459 10.0433 13.9135C10.5433 13.6713 11.9433 12.761 11.6433 12.3394C11.5666 12.227 11.3933 12.1621 11.1933 12.1621H8.64331C8.44331 12.1621 8.26998 12.227 8.19331 12.3394C7.89331 12.761 9.29331 13.6691 9.79331 13.9135Z" fill="black"/>
</g>
<path d="M10.4903 14.2888C10.3418 14.353 10.1698 14.3851 9.99383 14.3851C9.8179 14.3851 9.64198 14.353 9.49732 14.2888C9.49732 14.2888 9.26276 14.1754 8.93827 14.015L8 18.8287C8 18.8779 8.03128 18.91 8.05864 18.9421L9.8179 19.9519C9.90391 20.016 10.0837 20.016 10.1698 19.9519L11.929 18.9421C11.9877 18.91 12.0189 18.8779 11.9877 18.8287L11.0494 14C10.7288 14.1754 10.4903 14.2888 10.4903 14.2888Z" fill="black"/>
</g>
<defs>
<clipPath id="clip0_99_1619">
<rect width="4" height="8" fill="white" transform="translate(8 12)"/>
</clipPath>
</defs>
</svg>
