<svg width="48" height="48" viewBox="0 0 48 48" fill="none" xmlns="http://www.w3.org/2000/svg">
<path d="M24 16.426V24.9594M14.041 6.79999L6.8 14.041L6.79343 14.0472C6.05988 14.7807 5.69224 15.1484 5.42917 15.5777C5.19523 15.9594 5.02241 16.3761 4.91789 16.8114C4.8 17.3025 4.8 17.8241 4.8 18.8677V29.1323C4.8 30.1759 4.8 30.6976 4.91789 31.1887C5.02241 31.624 5.19523 32.0401 5.42917 32.4219C5.69294 32.8523 6.06255 33.2219 6.8 33.9594L14.041 41.2004C14.779 41.9383 15.1471 42.3065 15.5777 42.5703C15.9594 42.8043 16.3751 42.9778 16.8104 43.0823C17.3007 43.2 17.8215 43.2 18.8619 43.2H29.136C30.1764 43.2 30.6994 43.2 31.1897 43.0823C31.6251 42.9778 32.0412 42.8043 32.4229 42.5704C32.8535 42.3065 33.2225 41.9383 33.9604 41.2004L41.2014 33.9594C41.9394 33.2214 42.3075 32.8524 42.5714 32.4219C42.8053 32.0401 42.9767 31.624 43.0813 31.1887C43.1991 30.6976 43.2 30.1759 43.2 29.1323V18.8677C43.2 17.8241 43.1991 17.3025 43.0813 16.8114C42.9767 16.3761 42.8053 15.9594 42.5714 15.5777C42.3076 15.1471 41.9393 14.7789 41.2014 14.041L33.9604 6.79999C33.223 6.06252 32.8534 5.69293 32.4229 5.42915C32.0412 5.19522 31.6251 5.0224 31.1897 4.91788C30.6987 4.79999 30.1749 4.79999 29.1313 4.79999H18.8667C17.8231 4.79999 17.3015 4.79999 16.8104 4.91788C16.3751 5.0224 15.9594 5.19522 15.5777 5.42915C15.151 5.69062 14.7863 6.05538 14.0617 6.78L14.041 6.79999ZM24.1063 31.3594V31.5727L23.8938 31.5731V31.3594H24.1063Z" stroke="black" stroke-width="2" stroke-linecap="round" stroke-linejoin="round"/>
</svg>
