<svg width="72" height="72" viewBox="0 0 72 72" fill="none" xmlns="http://www.w3.org/2000/svg">
<path d="M64.4444 50.2222L50.2222 64.4444M4 68L12.8889 59.1111M59.1111 12.8889L68 4M28.8889 32.4444L21.7778 39.5556M39.5556 43.1111L32.4444 50.2222M50.2222 50.2222L64.4444 64.4444M18.2222 36L36 53.7778L30.6667 59.1111C29.5064 60.3097 28.1191 61.2654 26.5858 61.9225C25.0524 62.5797 23.4037 62.925 21.7355 62.9386C20.0673 62.9521 18.4132 62.6336 16.8693 62.0014C15.3255 61.3693 13.923 60.4362 12.7434 59.2566C11.5638 58.077 10.6307 56.6745 9.99857 55.1306C9.36643 53.5868 9.04785 51.9327 9.0614 50.2645C9.07494 48.5963 9.42033 46.9476 10.0775 45.4142C10.7346 43.8809 11.6903 42.4936 12.8889 41.3333L18.2222 36ZM53.7778 36L36 18.2222L41.3333 12.8889C42.4936 11.6903 43.8809 10.7346 45.4142 10.0775C46.9476 9.42033 48.5963 9.07494 50.2645 9.0614C51.9327 9.04785 53.5868 9.36643 55.1306 9.99857C56.6745 10.6307 58.077 11.5638 59.2566 12.7434C60.4362 13.923 61.3693 15.3255 62.0014 16.8693C62.6336 18.4132 62.9521 20.0673 62.9386 21.7355C62.925 23.4037 62.5797 25.0524 61.9225 26.5858C61.2654 28.1191 60.3097 29.5064 59.1111 30.6667L53.7778 36Z" stroke="black" stroke-width="4" stroke-linecap="round" stroke-linejoin="round"/>
</svg>
