<svg width="120" height="120" viewBox="0 0 120 120" fill="none" xmlns="http://www.w3.org/2000/svg">
<path d="M7.79558 90.0497C7.79558 93.768 5.44751 96.3425 1.28177 97.5028L0.491713 95.9503C3.57459 95.1215 5.33702 93.5525 5.65746 91.6354H1.26519V90.0497H7.79558ZM2.9779 103.265V97.7514H12.4088V103.265H2.9779ZM4.9337 101.702H10.4309V99.3149H4.9337V101.702ZM7.8895 94.2376V92.6077H10.4199V89.232H12.4088V97.1823H10.4199V94.2376H7.8895ZM18.3635 91.6851C18.3579 93.2707 19.1425 94.8122 21.0265 95.5691L19.9602 97.0939C18.7557 96.6077 17.9215 95.7403 17.4132 94.663C16.8883 95.8895 15.9933 96.9116 14.6729 97.4641L13.6066 95.9282C15.6176 95.0663 16.4187 93.2928 16.4242 91.6851V90.0442H18.3635V91.6851ZM16.2032 100.066V98.4696H26.032V103.442H24.0486V100.066H16.2032ZM21.0983 97.768V89.4586H22.9491V92.6906H24.1425V89.232H26.032V97.8398H24.1425V94.3204H22.9491V97.768H21.0983ZM42.4415 89.2099V96.3812H40.4525V95.2762H37.2039V93.7624H40.4525V92.5193H37.3531C36.4746 94.6519 34.447 96.0166 31.3034 96.6961L30.6293 95.0773C33.889 94.4309 35.3918 93.0773 35.6514 91.3702H31.4304V89.7735H37.8559C37.8559 90.2044 37.8227 90.6133 37.7675 91.0055H40.4525V89.2099H42.4415ZM32.9829 98.453V96.8895H42.4415V100.785H34.9995V101.718H42.7564V103.298H33.005V99.3094H40.4415V98.453H32.9829ZM51.8381 90.6354V91.779C51.8326 93.116 51.8326 94.8674 51.4514 97.232L49.4901 97.0773C49.816 95.011 49.8492 93.4862 49.8547 92.2265H44.468V90.6354H51.8381ZM43.7221 98.9448C44.5232 98.9392 45.4072 98.9337 46.3354 98.9116V94.7127H48.2967V98.8508C49.6945 98.7901 51.1144 98.6906 52.4238 98.5249L52.5398 100C49.6227 100.497 46.4017 100.547 43.9099 100.536L43.7221 98.9448ZM53.0923 103.442V89.2099H55.1033V94.9282H57.0425V96.5967H55.1033V103.442H53.0923ZM68.4557 89.2099V94.663H70.4668V96.3094H68.4557V103.409H66.4613V89.2099H68.4557ZM57.0856 99.4254C60.4447 97.7348 62.2513 95.4696 62.627 92.2983H57.8867V90.6685H64.6602C64.6491 94.9227 62.9861 98.6022 58.2071 100.95L57.0856 99.4254ZM77.3017 97.5359V98.9448H78.8266V97.5359H80.6719V101.845C82.2575 101.138 82.926 99.8066 82.9316 98.5138V97.4199H84.926V98.5138C84.915 99.9669 85.6166 101.348 87.3846 101.917L86.3625 103.398C85.136 102.978 84.3459 102.171 83.8984 101.149C83.4233 102.138 82.6387 102.956 81.4896 103.398L80.6719 102.171V103.282H75.4509V97.5359H77.3017ZM74.0586 93.0994C74.0476 91.1436 75.6553 89.7569 77.8432 89.7569C79.6498 89.7569 81.1028 90.7624 81.5006 92.2707H83.8763V89.2099H85.8653V96.7459H83.8763V93.9006H81.5061C81.1249 95.4475 79.6664 96.4696 77.8432 96.4696C75.6553 96.4696 74.0476 95.0829 74.0586 93.0994ZM75.9481 93.0994C75.9481 94.1713 76.7327 94.8343 77.8432 94.8453C78.926 94.8343 79.6995 94.1713 79.7106 93.0994C79.6995 92.0442 78.926 91.3978 77.8432 91.3978C76.7327 91.3978 75.9481 92.0442 75.9481 93.0994ZM77.3017 101.773H78.8266V100.414H77.3017V101.773ZM91.1901 90.2155C93.1072 90.2155 94.5436 91.7956 94.8199 94.3536H97.295V89.2099H99.2674V103.475H97.295V95.9503H94.842C94.6376 98.6796 93.168 100.359 91.1901 100.359C89.0298 100.359 87.4884 98.4033 87.4939 95.2762C87.4884 92.1823 89.0298 90.2155 91.1901 90.2155ZM89.4055 95.2762C89.4 97.4033 90.1293 98.5525 91.1901 98.5525C92.2619 98.5525 92.9746 97.4033 92.9801 95.2762C92.9746 93.1713 92.2619 92.0166 91.1901 92.0166C90.1293 92.0166 89.4 93.1713 89.4055 95.2762ZM113.67 100.149V101.773H100.664V100.149H103.565V96.6575C102.465 95.9945 101.802 94.9834 101.808 93.7293C101.802 91.4309 104.056 89.9116 107.139 89.9116C110.222 89.9116 112.498 91.4309 112.498 93.7293C112.498 94.9669 111.852 95.9613 110.78 96.6243V100.149H113.67ZM103.769 93.7293C103.769 95.1271 105.106 95.9834 107.139 95.989C109.156 95.9834 110.526 95.1271 110.531 93.7293C110.526 92.3039 109.156 91.4751 107.139 91.4862C105.106 91.4751 103.769 92.3039 103.769 93.7293ZM105.537 100.149H108.763V97.3812C108.255 97.4751 107.714 97.5304 107.139 97.5304C106.576 97.5304 106.04 97.4807 105.537 97.3812V100.149ZM117.293 90.6851L117.083 98.6133H115.083L114.873 90.6851H117.293ZM114.773 100.829C114.762 100.11 115.365 99.5249 116.088 99.5249C116.784 99.5249 117.392 100.11 117.398 100.829C117.392 101.552 116.784 102.138 116.088 102.138C115.365 102.138 114.762 101.552 114.773 100.829Z" fill="#4D4D4D"/>
<path d="M37 37.8207H58.8677M37 26H64.3347M37 49.6415H58.8677M67.5371 41.2829L82.9999 58M67.5372 58L83 41.2829" stroke="black" stroke-width="4" stroke-linecap="round" stroke-linejoin="round"/>
</svg>
