<svg width="72" height="72" viewBox="0 0 72 72" fill="none" xmlns="http://www.w3.org/2000/svg">
<path d="M36.0004 45.9048C43.7324 45.9048 50.0004 39.9352 50.0004 32.5714C50.0004 25.2076 43.7324 19.2381 36.0004 19.2381C28.2684 19.2381 22.0004 25.2076 22.0004 32.5714C22.0004 39.9352 28.2684 45.9048 36.0004 45.9048ZM36.0004 45.9048C27.8519 45.9048 20.7196 49.0126 16.8 53.6593M36.0004 45.9048C44.1489 45.9048 51.2812 49.0126 55.2008 53.6593M20.2963 4H51.7037C52.8492 4 53.7778 4.89051 53.7778 5.98901C53.7778 11.4815 58.4208 15.934 64.1482 15.934H65.6296C66.9388 15.934 68 16.9518 68 18.2072V21.1348C68 40.0222 57.3222 57.425 40.1055 66.5975L38.7607 67.314C37.0438 68.2287 34.9562 68.2287 33.2393 67.314L31.8945 66.5975C14.6778 57.425 4 40.0222 4 21.1348V18.2072C4 16.9518 5.06125 15.934 6.37037 15.934H7.85185C13.5792 15.934 18.2222 11.4815 18.2222 5.98901C18.2222 4.89051 19.1508 4 20.2963 4Z" stroke="black" stroke-width="4" stroke-linecap="round"/>
</svg>
