<svg width="20" height="20" viewBox="0 0 20 20" fill="none" xmlns="http://www.w3.org/2000/svg">
<g id="Ic_Happy-Circle_MD">
<path id="Icon" d="M7.31809 7.31816H7.59082M7.31809 7.59089H7.59082M12.409 7.31816H12.6817M12.409 7.59089H12.6817M6.36364 12.1818C6.66667 12.9091 7.81818 14.3636 10 14.3636C12.1818 14.3636 13.3333 12.9091 13.6364 12.1818M7.81818 7.45455C7.81818 7.65538 7.65538 7.81818 7.45455 7.81818C7.25371 7.81818 7.09091 7.65538 7.09091 7.45455C7.09091 7.25371 7.25371 7.09091 7.45455 7.09091C7.65538 7.09091 7.81818 7.25371 7.81818 7.45455ZM12.9091 7.45455C12.9091 7.65538 12.7463 7.81818 12.5455 7.81818C12.3446 7.81818 12.1818 7.65538 12.1818 7.45455C12.1818 7.25371 12.3446 7.09091 12.5455 7.09091C12.7463 7.09091 12.9091 7.25371 12.9091 7.45455ZM18 10C18 14.4183 14.4183 18 10 18C5.58172 18 2 14.4183 2 10C2 5.58172 5.58172 2 10 2C14.4183 2 18 5.58172 18 10Z" stroke="#111111" stroke-width="1.5" stroke-linecap="round"/>
</g>
</svg>
