<svg width="72" height="72" viewBox="0 0 72 72" fill="none" xmlns="http://www.w3.org/2000/svg">
<path d="M20.2008 6.99923L21.615 8.41344L20.2008 6.99923ZM6.99923 20.2008L5.58501 18.7866L5.58501 18.7866L6.99923 20.2008ZM6.99923 51.7992L8.41344 50.385H8.41344L6.99923 51.7992ZM20.2008 65.0008L18.7866 66.415H18.7866L20.2008 65.0008ZM65.0008 20.2008L66.415 18.7866L65.0008 20.2008ZM51.7992 6.99923L50.385 8.41344V8.41344L51.7992 6.99923ZM67.8232 24.3569L69.7679 23.89L69.7679 23.89L67.8232 24.3569ZM67.0569 22.507L68.7622 21.462V21.462L67.0569 22.507ZM67.0569 49.493L68.7622 50.538L67.0569 49.493ZM67.8232 47.6431L69.7679 48.11L69.7679 48.11L67.8232 47.6431ZM47.6431 67.8232L48.11 69.7679L48.11 69.7679L47.6431 67.8232ZM49.493 67.0569L50.538 68.7622L49.493 67.0569ZM22.507 67.0569L21.462 68.7622H21.462L22.507 67.0569ZM24.3569 67.8232L23.89 69.7679L23.89 69.7679L24.3569 67.8232ZM4.17683 47.6431L2.23209 48.11H2.23209L4.17683 47.6431ZM4.9431 49.493L6.64838 48.448H6.64838L4.9431 49.493ZM4.9431 22.507L6.64838 23.552H6.64838L4.9431 22.507ZM4.17683 24.3569L6.12157 24.8238L4.17683 24.3569ZM24.3569 4.17683L24.8238 6.12157L24.3569 4.17683ZM22.507 4.9431L23.552 6.64838V6.64838L22.507 4.9431ZM47.6431 4.17683L48.11 2.23209V2.23209L47.6431 4.17683ZM49.493 4.9431L48.448 6.64838V6.64838L49.493 4.9431ZM23.2 34C22.0954 34 21.2 34.8954 21.2 36C21.2 37.1046 22.0954 38 23.2 38V34ZM48.8 38C49.9046 38 50.8 37.1046 50.8 36C50.8 34.8954 49.9046 34 48.8 34V38ZM44.5585 2H27.4415V6H44.5585V2ZM18.7866 5.58501L5.58501 18.7866L8.41344 21.615L21.615 8.41344L18.7866 5.58501ZM2 27.4415V44.5585H6V27.4415H2ZM5.58501 53.2134L18.7866 66.415L21.615 63.5866L8.41344 50.385L5.58501 53.2134ZM27.4415 70H44.5585V66H27.4415V70ZM53.2134 66.415L66.415 53.2134L63.5866 50.385L50.385 63.5866L53.2134 66.415ZM70 44.5585V27.4415H66V44.5585H70ZM66.415 18.7866L53.2134 5.58501L50.385 8.41344L63.5866 21.615L66.415 18.7866ZM70 27.4415C70 25.9714 70.0129 24.9103 69.7679 23.89L65.8784 24.8238C65.9871 25.2767 66 25.781 66 27.4415H70ZM63.5866 21.615C64.7608 22.7892 65.1083 23.1549 65.3516 23.552L68.7622 21.462C68.2139 20.5673 67.4546 19.8261 66.415 18.7866L63.5866 21.615ZM69.7679 23.89C69.5621 23.0329 69.2227 22.2135 68.7622 21.462L65.3516 23.552C65.5929 23.9457 65.7706 24.3748 65.8784 24.8238L69.7679 23.89ZM66.415 53.2134C67.4546 52.1739 68.2139 51.4327 68.7622 50.538L65.3516 48.448C65.1083 48.8451 64.7608 49.2108 63.5866 50.385L66.415 53.2134ZM66 44.5585C66 46.219 65.9871 46.7234 65.8784 47.1762L69.7679 48.11C70.0129 47.0897 70 46.0286 70 44.5585H66ZM68.7622 50.538C69.2227 49.7865 69.5621 48.9671 69.7679 48.11L65.8784 47.1762C65.7706 47.6251 65.5929 48.0543 65.3516 48.448L68.7622 50.538ZM44.5585 70C46.0286 70 47.0897 70.0129 48.11 69.7679L47.1762 65.8784C46.7234 65.9871 46.219 66 44.5585 66V70ZM50.385 63.5866C49.2108 64.7608 48.8451 65.1083 48.448 65.3516L50.538 68.7622C51.4327 68.2139 52.1739 67.4546 53.2134 66.415L50.385 63.5866ZM48.11 69.7679C48.9671 69.5621 49.7865 69.2227 50.538 68.7622L48.448 65.3516C48.0543 65.5929 47.6251 65.7706 47.1762 65.8784L48.11 69.7679ZM18.7866 66.415C19.8261 67.4546 20.5673 68.2139 21.462 68.7622L23.552 65.3516C23.1549 65.1083 22.7892 64.7608 21.615 63.5866L18.7866 66.415ZM27.4415 66C25.781 66 25.2767 65.9871 24.8238 65.8784L23.89 69.7679C24.9103 70.0129 25.9714 70 27.4415 70V66ZM21.462 68.7622C22.2135 69.2227 23.0329 69.5621 23.89 69.7679L24.8238 65.8784C24.3748 65.7706 23.9457 65.5929 23.552 65.3516L21.462 68.7622ZM2 44.5585C2 46.0286 1.98715 47.0897 2.23209 48.11L6.12157 47.1762C6.01285 46.7233 6 46.219 6 44.5585H2ZM8.41344 50.385C7.23924 49.2108 6.89172 48.8451 6.64838 48.448L3.23782 50.538C3.78606 51.4327 4.54544 52.1739 5.58501 53.2134L8.41344 50.385ZM2.23209 48.11C2.43787 48.9671 2.77726 49.7865 3.23782 50.538L6.64838 48.448C6.40714 48.0543 6.22936 47.6252 6.12157 47.1762L2.23209 48.11ZM5.58501 18.7866C4.54544 19.8261 3.78606 20.5673 3.23782 21.462L6.64838 23.552C6.89172 23.1549 7.23924 22.7892 8.41344 21.615L5.58501 18.7866ZM6 27.4415C6 25.781 6.01285 25.2767 6.12157 24.8238L2.23209 23.89C1.98715 24.9103 2 25.9714 2 27.4415H6ZM3.23782 21.462C2.77726 22.2135 2.43787 23.0329 2.23209 23.89L6.12157 24.8238C6.22936 24.3748 6.40714 23.9457 6.64838 23.552L3.23782 21.462ZM27.4415 2C25.9714 2 24.9103 1.98715 23.89 2.23209L24.8238 6.12157C25.2767 6.01285 25.781 6 27.4415 6V2ZM21.615 8.41344C22.7892 7.23924 23.1549 6.89172 23.552 6.64838L21.462 3.23782C20.5673 3.78606 19.8261 4.54544 18.7866 5.58501L21.615 8.41344ZM23.89 2.23209C23.0329 2.43787 22.2135 2.77726 21.462 3.23782L23.552 6.64838C23.9457 6.40714 24.3748 6.22936 24.8238 6.12157L23.89 2.23209ZM44.5585 6C46.219 6 46.7233 6.01285 47.1762 6.12157L48.11 2.23209C47.0897 1.98715 46.0286 2 44.5585 2V6ZM53.2134 5.58501C52.1739 4.54544 51.4327 3.78606 50.538 3.23782L48.448 6.64838C48.8451 6.89172 49.2108 7.23924 50.385 8.41344L53.2134 5.58501ZM47.1762 6.12157C47.6252 6.22936 48.0543 6.40714 48.448 6.64838L50.538 3.23782C49.7865 2.77726 48.9671 2.43787 48.11 2.23209L47.1762 6.12157ZM23.2 38H48.8V34H23.2V38Z" fill="black"/>
</svg>
