<svg width="72" height="72" viewBox="0 0 72 72" fill="none" xmlns="http://www.w3.org/2000/svg">
<path d="M36.0004 23.2V36L41.5426 39.2M4 36C4 53.6731 18.3269 68 36 68C53.6731 68 68 53.6731 68 36C68 18.3269 53.6731 4 36 4M7.2 7.2H19.9898C19.99 7.2 19.9902 7.20006 19.9904 7.20017L19.9926 7.20167C19.9929 7.20186 19.9931 7.20218 19.9931 7.20252L19.993 7.20657C19.993 7.20683 19.9929 7.20708 19.9927 7.20726L7.20719 19.9928C7.20705 19.993 7.20695 19.9931 7.20692 19.9933L7.20639 19.996C7.20632 19.9963 7.20643 19.9967 7.20667 19.9969L7.20957 19.9997C7.20976 19.9999 7.21001 20 7.21027 20H20" stroke="black" stroke-width="4" stroke-linecap="round"/>
</svg>
