<svg width="21" height="20" viewBox="0 0 21 20" fill="none" xmlns="http://www.w3.org/2000/svg">
<path d="M10.5 6.84418V10.3997M6.35043 2.83333L3.33333 5.85043L3.33059 5.853C3.02495 6.15864 2.87177 6.31183 2.76215 6.4907C2.66468 6.64976 2.59267 6.82338 2.54912 7.00477C2.5 7.20937 2.5 7.42672 2.5 7.86155V12.1385C2.5 12.5733 2.5 12.7907 2.54912 12.9953C2.59267 13.1767 2.66468 13.3501 2.76215 13.5091C2.87206 13.6885 3.02606 13.8425 3.33333 14.1497L6.35043 17.1668C6.6579 17.4743 6.8113 17.6277 6.9907 17.7376C7.14977 17.8351 7.32294 17.9074 7.50434 17.951C7.70863 18 7.92562 18 8.35912 18H12.64C13.0735 18 13.2914 18 13.4957 17.951C13.6771 17.9074 13.8505 17.8351 14.0095 17.7377C14.189 17.6277 14.3427 17.4743 14.6502 17.1668L17.6673 14.1497C17.9747 13.8423 18.1281 13.6885 18.2381 13.5091C18.3356 13.3501 18.407 13.1767 18.4505 12.9953C18.4996 12.7907 18.5 12.5733 18.5 12.1385V7.86155C18.5 7.42672 18.4996 7.20937 18.4505 7.00477C18.407 6.82338 18.3356 6.64977 18.2381 6.49071C18.1281 6.31131 17.9747 6.15787 17.6673 5.85043L14.6502 2.83333C14.3429 2.52606 14.1889 2.37206 14.0095 2.26215C13.8505 2.16468 13.6771 2.09267 13.4957 2.04912C13.2911 2 13.0729 2 12.638 2H8.36111C7.92628 2 7.70894 2 7.50434 2.04912C7.32294 2.09267 7.14976 2.16468 6.9907 2.26215C6.81292 2.3711 6.66094 2.52308 6.35902 2.82501L6.35043 2.83333ZM10.5443 13.0664V13.1553L10.4557 13.1555V13.0664H10.5443Z" stroke="white" stroke-width="1.5" stroke-linecap="round" stroke-linejoin="round"/>
</svg>
