<svg width="20" height="20" viewBox="0 0 20 20" fill="none" xmlns="http://www.w3.org/2000/svg">
<path d="M14.8638 3.70981L15.3128 3.48983V3.48983L14.8638 3.70981ZM13 3V3.5V3ZM14.3175 3.14169L14.5516 2.69989L14.5516 2.69989L14.3175 3.14169ZM14.3175 15.8583L14.5516 16.3001H14.5516L14.3175 15.8583ZM14.8638 15.2902L15.3128 15.5102L15.3128 15.5102L14.8638 15.2902ZM5.68251 15.8583L5.4484 16.3001L5.4484 16.3001L5.68251 15.8583ZM5.13624 15.2902L5.58525 15.0702H5.58525L5.13624 15.2902ZM5.36612 7.16921L5.0057 6.82265L5.0057 6.82265L5.36612 7.16921ZM9.00888 3.38076L8.64847 3.0342V3.0342L9.00888 3.38076ZM7 16.5H13V15.5H7V16.5ZM15.5 13.92V5.08H14.5V13.92H15.5ZM15.5 5.08C15.5 4.7239 15.5004 4.42791 15.4814 4.187C15.4621 3.94081 15.4203 3.70935 15.3128 3.48983L14.4148 3.92979C14.4434 3.98836 14.4698 4.07796 14.4845 4.26532C14.4996 4.45797 14.5 4.70803 14.5 5.08H15.5ZM13 3.5C13.3586 3.5 13.5963 3.50042 13.7787 3.51592C13.9546 3.53086 14.0336 3.55713 14.0834 3.58349L14.5516 2.69989C14.334 2.58457 14.1043 2.53998 13.8633 2.51951C13.6288 2.49958 13.3415 2.5 13 2.5V3.5ZM15.3128 3.48983C15.1477 3.15282 14.8824 2.87516 14.5516 2.69989L14.0834 3.58349C14.223 3.6575 14.3402 3.77758 14.4148 3.92979L15.3128 3.48983ZM13 16.5C13.3415 16.5 13.6288 16.5004 13.8633 16.4805C14.1043 16.46 14.334 16.4154 14.5516 16.3001L14.0834 15.4165C14.0336 15.4429 13.9546 15.4691 13.7787 15.4841C13.5963 15.4996 13.3586 15.5 13 15.5V16.5ZM14.5 13.92C14.5 14.292 14.4996 14.542 14.4845 14.7347C14.4698 14.922 14.4434 15.0116 14.4148 15.0702L15.3128 15.5102C15.4203 15.2907 15.4621 15.0592 15.4814 14.813C15.5004 14.5721 15.5 14.2761 15.5 13.92H14.5ZM14.5516 16.3001C14.8824 16.1248 15.1477 15.8472 15.3128 15.5102L14.4148 15.0702C14.3402 15.2224 14.223 15.3425 14.0834 15.4165L14.5516 16.3001ZM7 15.5C6.6414 15.5 6.40371 15.4996 6.22134 15.4841C6.04541 15.4691 5.96639 15.4429 5.91663 15.4165L5.4484 16.3001C5.66603 16.4154 5.89572 16.46 6.13667 16.4805C6.37119 16.5004 6.65855 16.5 7 16.5V15.5ZM4.5 13.92C4.5 14.2761 4.49964 14.5721 4.51857 14.813C4.53791 15.0592 4.57969 15.2907 4.68724 15.5102L5.58525 15.0702C5.55655 15.0116 5.53021 14.922 5.51549 14.7347C5.50036 14.542 5.5 14.292 5.5 13.92H4.5ZM5.91663 15.4165C5.77697 15.3425 5.65982 15.2224 5.58525 15.0702L4.68723 15.5102C4.85234 15.8472 5.11765 16.1248 5.4484 16.3001L5.91663 15.4165ZM4.5 8.08845V13.92H5.5V8.08845H4.5ZM13 2.5H9.89276V3.5H13V2.5ZM5.72654 7.51576L9.3693 3.72731L8.64847 3.0342L5.0057 6.82265L5.72654 7.51576ZM5.625 8.05H8.70192V7.05H5.625V8.05ZM9.875 6.85V3.65H8.875V6.85H9.875ZM8.70192 8.05C9.3681 8.05 9.875 7.49407 9.875 6.85H8.875C8.875 6.97912 8.77921 7.05 8.70192 7.05V8.05ZM9.89276 2.5C9.63717 2.5 9.38789 2.55749 9.16111 2.66482L9.58889 3.5687C9.68423 3.52358 9.78763 3.5 9.89276 3.5V2.5ZM9.16111 2.66482C8.97109 2.75476 8.79724 2.87948 8.64847 3.0342L9.3693 3.72731C9.4343 3.65971 9.50895 3.60654 9.58889 3.5687L9.16111 2.66482ZM9.875 3.65V3.11676H8.875V3.65H9.875ZM5.5 8.08845C5.5 7.97008 5.52462 7.85491 5.57033 7.75043L4.65419 7.34957C4.55334 7.58008 4.5 7.83169 4.5 8.08845H5.5ZM5.57033 7.75043C5.60863 7.6629 5.66148 7.58342 5.72654 7.51576L5.0057 6.82265C4.85697 6.97734 4.73875 7.15631 4.65419 7.34957L5.57033 7.75043ZM5.625 7.05H5.11226V8.05H5.625V7.05Z" fill="black"/>
</svg>
