<svg width="20" height="20" viewBox="0 0 20 20" fill="none" xmlns="http://www.w3.org/2000/svg">
<path d="M17.8031 16.3637C18.096 16.6566 18.5709 16.6566 18.8637 16.3637C19.1566 16.0708 19.1566 15.5959 18.8637 15.303L17.8031 16.3637ZM1.66675 4.08334C1.25253 4.08334 0.916748 4.41913 0.916748 4.83334C0.916748 5.24756 1.25253 5.58334 1.66675 5.58334L1.66675 4.08334ZM6.66675 5.58334C7.08096 5.58334 7.41675 5.24756 7.41675 4.83334C7.41675 4.41913 7.08096 4.08334 6.66675 4.08334V5.58334ZM1.66675 9.25001C1.25253 9.25001 0.916748 9.5858 0.916748 10C0.916748 10.4142 1.25253 10.75 1.66675 10.75L1.66675 9.25001ZM5.00008 10.75C5.41429 10.75 5.75008 10.4142 5.75008 10C5.75008 9.5858 5.41429 9.25001 5.00008 9.25001V10.75ZM1.66675 14.4167C1.25253 14.4167 0.916748 14.7525 0.916748 15.1667C0.916748 15.5809 1.25253 15.9167 1.66675 15.9167L1.66675 14.4167ZM6.66675 15.9167C7.08096 15.9167 7.41675 15.5809 7.41675 15.1667C7.41675 14.7525 7.08096 14.4167 6.66675 14.4167V15.9167ZM16.5687 9.95099H15.8187C15.8187 11.8109 14.311 13.3186 12.4511 13.3186V14.0686V14.8186C15.1394 14.8186 17.3187 12.6393 17.3187 9.95099H16.5687ZM12.4511 14.0686V13.3186C10.5912 13.3186 9.08341 11.8109 9.08341 9.95099H8.33341H7.58341C7.58341 12.6393 9.76273 14.8186 12.4511 14.8186V14.0686ZM8.33341 9.95099H9.08341C9.08341 8.09109 10.5912 6.58334 12.4511 6.58334V5.83334V5.08334C9.76273 5.08334 7.58341 7.26266 7.58341 9.95099H8.33341ZM12.4511 5.83334V6.58334C14.311 6.58334 15.8187 8.09109 15.8187 9.95099H16.5687H17.3187C17.3187 7.26266 15.1394 5.08334 12.4511 5.08334V5.83334ZM15.3922 12.8922L14.8619 13.4225L17.8031 16.3637L18.3334 15.8333L18.8637 15.303L15.9226 12.3618L15.3922 12.8922ZM1.66675 4.83334L1.66675 5.58334L6.66675 5.58334V4.83334V4.08334L1.66675 4.08334L1.66675 4.83334ZM1.66675 10L1.66675 10.75L5.00008 10.75V10V9.25001L1.66675 9.25001L1.66675 10ZM1.66675 15.1667L1.66675 15.9167L6.66675 15.9167V15.1667V14.4167L1.66675 14.4167L1.66675 15.1667Z" fill="black"/>
</svg>
