<svg width="20" height="20" viewBox="0 0 20 20" fill="none" xmlns="http://www.w3.org/2000/svg">
<path d="M3 17H17M3 17V13.407L10 6.22113M3 17L6.5 17L13.5 9.81408M10 6.22113L12.51 3.6444L12.5116 3.64287C12.8571 3.28817 13.0302 3.11051 13.2297 3.04396C13.4054 2.98535 13.5947 2.98535 13.7704 3.04396C13.9698 3.11046 14.1427 3.28792 14.4877 3.64212L16.01 5.20487C16.3565 5.56059 16.5299 5.73853 16.5948 5.94362C16.6519 6.12403 16.6519 6.31836 16.5948 6.49876C16.5299 6.70371 16.3568 6.88138 16.0108 7.23659L16.0101 7.23735L13.5 9.81408M10 6.22113L13.5 9.81408" stroke="black" stroke-linecap="round" stroke-linejoin="round"/>
</svg>
