<svg width="20" height="20" viewBox="0 0 20 20" fill="none" xmlns="http://www.w3.org/2000/svg">
<g id="Ic_File-Check_MD">
<path id="Icon" d="M6 11.25C5.58579 11.25 5.25 11.5858 5.25 12C5.25 12.4142 5.58579 12.75 6 12.75V11.25ZM12 12.75C12.4142 12.75 12.75 12.4142 12.75 12C12.75 11.5858 12.4142 11.25 12 11.25V12.75ZM6 7.25C5.58579 7.25 5.25 7.58579 5.25 8C5.25 8.41421 5.58579 8.75 6 8.75V7.25ZM12 8.75C12.4142 8.75 12.75 8.41421 12.75 8C12.75 7.58579 12.4142 7.25 12 7.25V8.75ZM15.25 12.5C15.25 12.9142 15.5858 13.25 16 13.25C16.4142 13.25 16.75 12.9142 16.75 12.5H15.25ZM8 19.75C8.41421 19.75 8.75 19.4142 8.75 19C8.75 18.5858 8.41421 18.25 8 18.25V19.75ZM3.07805 18.7748L3.42378 18.1093L3.42378 18.1093L3.07805 18.7748ZM2.22517 17.9219L1.55961 18.2677H1.55961L2.22517 17.9219ZM14.9219 3.22517L14.5762 3.89073V3.89073L14.9219 3.22517ZM15.7748 4.07805L15.1093 4.42378L15.1093 4.42378L15.7748 4.07805ZM3.07805 3.22517L2.73232 2.55961H2.73232L3.07805 3.22517ZM2.22517 4.07805L1.55961 3.73232V3.73232L2.22517 4.07805ZM18.5303 15.5303C18.8232 15.2374 18.8232 14.7626 18.5303 14.4697C18.2374 14.1768 17.7626 14.1768 17.4697 14.4697L18.5303 15.5303ZM13.6464 18.6464L13.1161 19.1768L13.6464 18.6464ZM12.5303 16.4697C12.2374 16.1768 11.7626 16.1768 11.4697 16.4697C11.1768 16.7626 11.1768 17.2374 11.4697 17.5303L12.5303 16.4697ZM6 12.75H12V11.25H6V12.75ZM6 8.75H12V7.25H6V8.75ZM5.22 3.75H12.78V2.25H5.22V3.75ZM15.25 6.22V12.5H16.75V6.22H15.25ZM8 18.25H5.22V19.75H8V18.25ZM2.75 15.78V6.22H1.25V15.78H2.75ZM5.22 18.25C4.63792 18.25 4.24722 18.2494 3.94653 18.2244C3.65482 18.2002 3.51562 18.157 3.42378 18.1093L2.73232 19.4404C3.07395 19.6179 3.43624 19.6872 3.82239 19.7193C4.19956 19.7506 4.6631 19.75 5.22 19.75V18.25ZM1.25 15.78C1.25 16.3369 1.2494 16.8004 1.28072 17.1776C1.31279 17.5638 1.38215 17.926 1.55961 18.2677L2.89073 17.5762C2.84303 17.4844 2.7998 17.3452 2.77557 17.0535C2.7506 16.7528 2.75 16.3621 2.75 15.78H1.25ZM3.42378 18.1093C3.19548 17.9907 3.00933 17.8045 2.89073 17.5762L1.55961 18.2677C1.82052 18.7699 2.23005 19.1795 2.73232 19.4404L3.42378 18.1093ZM12.78 3.75C13.3621 3.75 13.7528 3.7506 14.0535 3.77557C14.3452 3.7998 14.4844 3.84303 14.5762 3.89073L15.2677 2.55961C14.926 2.38215 14.5638 2.31279 14.1776 2.28072C13.8004 2.2494 13.3369 2.25 12.78 2.25V3.75ZM16.75 6.22C16.75 5.6631 16.7506 5.19956 16.7193 4.82239C16.6872 4.43624 16.6179 4.07396 16.4404 3.73232L15.1093 4.42378C15.157 4.51562 15.2002 4.65482 15.2244 4.94653C15.2494 5.24722 15.25 5.63792 15.25 6.22H16.75ZM14.5762 3.89073C14.8045 4.00933 14.9907 4.19548 15.1093 4.42378L16.4404 3.73232C16.1795 3.23005 15.7699 2.82052 15.2677 2.55961L14.5762 3.89073ZM5.22 2.25C4.6631 2.25 4.19956 2.2494 3.82239 2.28072C3.43624 2.31279 3.07395 2.38215 2.73232 2.55961L3.42378 3.89073C3.51562 3.84303 3.65482 3.7998 3.94653 3.77557C4.24722 3.7506 4.63792 3.75 5.22 3.75V2.25ZM2.75 6.22C2.75 5.63792 2.7506 5.24722 2.77557 4.94653C2.7998 4.65482 2.84303 4.51562 2.89073 4.42378L1.55961 3.73232C1.38215 4.07395 1.31279 4.43624 1.28072 4.82239C1.2494 5.19956 1.25 5.6631 1.25 6.22H2.75ZM2.73232 2.55961C2.23005 2.82052 1.82052 3.23005 1.55961 3.73232L2.89073 4.42378C3.00933 4.19548 3.19548 4.00933 3.42378 3.89073L2.73232 2.55961ZM14.8839 19.1768L18.5303 15.5303L17.4697 14.4697L13.8232 18.1161L14.8839 19.1768ZM14.1768 18.1161L12.5303 16.4697L11.4697 17.5303L13.1161 19.1768L14.1768 18.1161ZM13.8232 18.1161C13.9209 18.0185 14.0791 18.0185 14.1768 18.1161L13.1161 19.1768C13.6043 19.6649 14.3957 19.6649 14.8839 19.1768L13.8232 18.1161Z" fill="black"/>
<g id="Icon_2">
<path d="M5.7 2.4C5.7 2.17909 5.89588 2 6.1375 2H12.2625C12.5041 2 12.7 2.17909 12.7 2.4V4C12.7 4.22091 12.5041 4.4 12.2625 4.4H6.1375C5.89588 4.4 5.7 4.22091 5.7 4V2.4Z" fill="white"/>
<path d="M5 4.35005H5.7V2.85005H5V4.35005ZM13.4 2.85005H12.7V4.35005H13.4V2.85005ZM6.1375 2.75H12.2625V1.25H6.1375V2.75ZM11.95 2.4V4H13.45V2.4H11.95ZM12.2625 3.65H6.1375V5.15H12.2625V3.65ZM6.45 4V2.4H4.95V4H6.45ZM6.1375 3.65C6.24541 3.65 6.45 3.74486 6.45 4H4.95C4.95 4.69697 5.54634 5.15 6.1375 5.15V3.65ZM11.95 4C11.95 3.74486 12.1546 3.65 12.2625 3.65V5.15C12.8537 5.15 13.45 4.69697 13.45 4H11.95ZM12.2625 2.75C12.1546 2.75 11.95 2.65514 11.95 2.4H13.45C13.45 1.70303 12.8537 1.25 12.2625 1.25V2.75ZM6.1375 1.25C5.54634 1.25 4.95 1.70303 4.95 2.4H6.45C6.45 2.65514 6.24541 2.75 6.1375 2.75V1.25Z" fill="black"/>
</g>
</g>
</svg>
