<svg width="20" height="20" viewBox="0 0 20 20" fill="none" xmlns="http://www.w3.org/2000/svg">
<g id="Ic_Presentation_MD">
<path id="Icon" d="M7.33333 18L9.93715 15.3962C9.97186 15.3615 10.0281 15.3615 10.0629 15.3962L12.6667 18M6.44444 10.8889L8.76815 8.39921C8.79566 8.36973 8.83956 8.36246 8.87511 8.3815L11.1178 9.58292C11.1565 9.60369 11.2046 9.59299 11.231 9.55775L13.5556 6.44444M4.84444 15.3333H15.1556C16.1512 15.3333 16.649 15.3333 17.0293 15.1396C17.3638 14.9691 17.6358 14.6972 17.8062 14.3626C18 13.9824 18 13.4845 18 12.4889V4.84444C18 3.8488 18 3.35097 17.8062 2.97068C17.6358 2.63617 17.3638 2.36421 17.0293 2.19377C16.649 2 16.1512 2 15.1556 2H4.84444C3.8488 2 3.35097 2 2.97068 2.19377C2.63617 2.36421 2.36421 2.63617 2.19377 2.97068C2 3.35097 2 3.8488 2 4.84444V12.4889C2 13.4845 2 13.9824 2.19377 14.3626C2.36421 14.6972 2.63617 14.9691 2.97068 15.1396C3.35097 15.3333 3.8488 15.3333 4.84444 15.3333Z" stroke="black" stroke-width="1.5" stroke-linecap="round"/>
</g>
</svg>
