<svg width="20" height="20" viewBox="0 0 20 20" fill="none" xmlns="http://www.w3.org/2000/svg">
<g id="Ic_Checkbox_MD">
<path id="Icon" d="M13.5556 2.75C13.9698 2.75 14.3056 2.41421 14.3056 2C14.3056 1.58579 13.9698 1.25 13.5556 1.25V2.75ZM18.75 10C18.75 9.58579 18.4142 9.25 18 9.25C17.5858 9.25 17.25 9.58579 17.25 10H18.75ZM3.94137 17.6125L4.28186 16.9442H4.28186L3.94137 17.6125ZM2.38753 16.0586L3.05579 15.7181L3.05579 15.7181L2.38753 16.0586ZM16.0586 17.6125L15.7181 16.9442H15.7181L16.0586 17.6125ZM17.6125 16.0586L16.9442 15.7181V15.7181L17.6125 16.0586ZM2.38753 3.94137L1.71928 3.60087H1.71928L2.38753 3.94137ZM3.94137 2.38753L3.60087 1.71928V1.71928L3.94137 2.38753ZM10.3709 11.4602L9.83874 10.9317L9.83874 10.9317L10.3709 11.4602ZM18.5322 4.30626C18.824 4.01234 18.8224 3.53747 18.5285 3.2456C18.2346 2.95373 17.7597 2.95539 17.4678 3.2493L18.5322 4.30626ZM9.74019 11.4602L10.2724 10.9317L10.2724 10.9317L9.74019 11.4602ZM6.97662 7.61294C6.68475 7.31902 6.20988 7.31737 5.91597 7.60924C5.62205 7.90111 5.6204 8.37598 5.91227 8.66989L6.97662 7.61294ZM12.3111 17.25H7.68889V18.75H12.3111V17.25ZM2.75 12.3111V7.68889H1.25V12.3111H2.75ZM7.68889 2.75H13.5556V1.25H7.68889V2.75ZM17.25 10V12.3111H18.75V10H17.25ZM7.68889 17.25C6.68086 17.25 5.96995 17.2494 5.41468 17.204C4.86817 17.1594 4.5388 17.0751 4.28186 16.9442L3.60087 18.2807C4.10451 18.5373 4.65326 18.6468 5.29253 18.6991C5.92305 18.7506 6.70562 18.75 7.68889 18.75V17.25ZM1.25 12.3111C1.25 13.2944 1.24942 14.0769 1.30093 14.7075C1.35316 15.3467 1.46266 15.8955 1.71928 16.3991L3.05579 15.7181C2.92487 15.4612 2.8406 15.1318 2.79595 14.5853C2.75058 14.03 2.75 13.3191 2.75 12.3111H1.25ZM4.28186 16.9442C3.75396 16.6752 3.32477 16.246 3.05579 15.7181L1.71928 16.3991C2.13207 17.2093 2.79073 17.8679 3.60087 18.2807L4.28186 16.9442ZM12.3111 18.75C13.2944 18.75 14.0769 18.7506 14.7075 18.6991C15.3467 18.6468 15.8955 18.5373 16.3991 18.2807L15.7181 16.9442C15.4612 17.0751 15.1318 17.1594 14.5853 17.204C14.03 17.2494 13.3191 17.25 12.3111 17.25V18.75ZM17.25 12.3111C17.25 13.3191 17.2494 14.03 17.204 14.5853C17.1594 15.1318 17.0751 15.4612 16.9442 15.7181L18.2807 16.3991C18.5373 15.8955 18.6468 15.3467 18.6991 14.7075C18.7506 14.0769 18.75 13.2944 18.75 12.3111H17.25ZM16.3991 18.2807C17.2093 17.8679 17.8679 17.2093 18.2807 16.3991L16.9442 15.7181C16.6752 16.246 16.246 16.6752 15.7181 16.9442L16.3991 18.2807ZM2.75 7.68889C2.75 6.68086 2.75058 5.96995 2.79595 5.41468C2.8406 4.86817 2.92487 4.5388 3.05579 4.28186L1.71928 3.60087C1.46266 4.10451 1.35316 4.65326 1.30093 5.29253C1.24942 5.92305 1.25 6.70562 1.25 7.68889H2.75ZM7.68889 1.25C6.70562 1.25 5.92305 1.24942 5.29253 1.30093C4.65326 1.35316 4.10451 1.46266 3.60087 1.71928L4.28186 3.05579C4.5388 2.92487 4.86817 2.8406 5.41468 2.79595C5.96995 2.75058 6.68086 2.75 7.68889 2.75V1.25ZM3.05579 4.28186C3.32477 3.75396 3.75396 3.32477 4.28186 3.05579L3.60087 1.71928C2.79073 2.13207 2.13207 2.79073 1.71928 3.60087L3.05579 4.28186ZM10.9031 11.9887L18.5322 4.30626L17.4678 3.2493L9.83874 10.9317L10.9031 11.9887ZM10.2724 10.9317L6.97662 7.61294L5.91227 8.66989L9.20802 11.9887L10.2724 10.9317ZM9.83874 10.9317C9.95824 10.8114 10.1529 10.8114 10.2724 10.9317L9.20802 11.9887C9.67514 12.4591 10.436 12.4591 10.9031 11.9887L9.83874 10.9317Z" fill="black"/>
</g>
</svg>
